# xmcd
#
# Track frame offsets:
#	183
#	12383
#	24245
#	37733
#	54003
#	68378
#	82995
#	102933
#	115095
#	128170
#	139370
#	152070
#
# Disc length: 2212 seconds
#
# Revision: 1
# Processed by: cddbd v1.5.2PL0 Copyright (c) Steve Scherf et al.
# Submitted via: audiograbber 1.83.01
#
DISCID=8508a20c
DTITLE=Various Artist - SUPER TRUCKER - Unterwegs
DYEAR=1900
DGENRE=Country
TTITLE0=Thorsten/Löhmer/Astor - Radwechsel
TTITLE1=Gerke/Hannes/Arnscheidt - 14 Tage auf dem Brenner
TTITLE2=Green/Montgomery/Spruth - Six Days on the Road
TTITLE3=Löhmer/Astor - Wer die Oma nicht kennt, hat die Zeit nicht verpennt (Om
TTITLE3=a Hildegard Song)
TTITLE4=Astor/Löhmer/Skolman - Ich bin ein Gefangener der Autobahn
TTITLE5=Löhmer/Astor/U. Trotzki - Gebet eines Truckers
TTITLE6=Arnscheidt/Stegmann - Meine Antwort ist die große Autobahn
TTITLE7=Astor/Löhmer - Ich wünsch Euch Hals- und Beinbruch (oder Schrott und kn
TTITLE7=itterfreien Flug - Äthiopien-Song)
TTITLE8=Arnscheidt/Gerke/Hannes - Buchstabiere LKW
TTITLE9=Löhmer/Astor - Ist das ein Leben - So hart und schön
TTITLE10=Astor/Löhmer/Spörlein - Er ist ein Gottesmann für Trucker (Pater Hofer
TTITLE10=Song)
TTITLE11=Harms/Astor - Ich hab' Hunger auf ein Weib (I might be in Tulsa for a 
TTITLE11=while)
EXTD=
EXTT0=
EXTT1=
EXTT2=
EXTT3=
EXTT4=
EXTT5=
EXTT6=
EXTT7=
EXTT8=
EXTT9=
EXTT10=
EXTT11=
PLAYORDER=
